<?xml version="1.0" standalone="no"?><!DOCTYPE svg PUBLIC "-//W3C//DTD SVG 1.1//EN" "http://www.w3.org/Graphics/SVG/1.1/DTD/svg11.dtd"><svg t="1746694108133" class="icon" viewBox="0 0 1000 1000" version="1.1" xmlns="http://www.w3.org/2000/svg" p-id="21368" xmlns:xlink="http://www.w3.org/1999/xlink" width="32" height="32"><path d="M302.3 292.032c-23.398 0-42.365 18.964-42.365 42.361s18.967 42.365 42.365 42.365 42.365-18.967 42.365-42.365-18.966-42.361-42.365-42.361zM302.3 630.933c-23.398 0-42.365 18.967-42.365 42.363 0 23.397 18.967 42.363 42.365 42.363s42.365-18.966 42.365-42.363c0-23.395-18.966-42.363-42.365-42.363zM302.3 461.482c-23.398 0-42.365 18.966-42.365 42.363s18.967 42.363 42.365 42.363 42.365-18.966 42.365-42.363-18.966-42.363-42.365-42.363zM725.948 630.933h-254.188c-23.398 0-42.365 18.967-42.365 42.363 0 23.397 18.967 42.363 42.365 42.363h254.188c23.398 0 42.365-18.966 42.365-42.363 0-23.395-18.967-42.363-42.365-42.363zM725.948 292.032h-254.188c-23.398 0-42.365 18.964-42.365 42.361s18.967 42.365 42.365 42.365h254.188c23.398 0 42.365-18.967 42.365-42.365s-18.967-42.361-42.365-42.361zM853.043 37.853h-677.837c-46.794 0-84.729 37.934-84.729 84.725v762.532c0 46.791 37.935 84.725 84.729 84.725h677.837c46.794 0 84.727-37.934 84.727-84.725v-762.532c0-46.791-37.933-84.725-84.727-84.725zM853.043 842.747c0 23.397-18.97 42.363-42.367 42.363h-593.105c-23.398 0-42.365-18.966-42.365-42.363v-677.806c0-23.395 18.967-42.363 42.365-42.363h593.105c23.398 0 42.367 18.969 42.367 42.363v677.806zM725.948 461.482h-254.188c-23.398 0-42.365 18.966-42.365 42.363s18.967 42.363 42.365 42.363h254.188c23.398 0 42.365-18.966 42.365-42.363s-18.967-42.363-42.365-42.363z" p-id="21369" fill="#1eadb5"></path></svg>