<?xml version="1.0" standalone="no"?><!DOCTYPE svg PUBLIC "-//W3C//DTD SVG 1.1//EN" "http://www.w3.org/Graphics/SVG/1.1/DTD/svg11.dtd"><svg t="1746684600778" class="icon" viewBox="0 0 1024 1024" version="1.1" xmlns="http://www.w3.org/2000/svg" p-id="14577" xmlns:xlink="http://www.w3.org/1999/xlink" width="32" height="32"><path d="M645.973333 473.514667a111.232 111.232 0 1 0 222.506667 0 111.232 111.232 0 0 0-222.464 0zM889.514667 658.346667a42.453333 42.453333 0 0 0-60.16 0c-28.117333 28.16-77.013333 28.16-105.173334 0l-11.008-11.008c-60.245333-60.245333-165.162667-60.245333-225.408 0l-10.026666 9.984c-29.013333 29.013333-76.245333 29.013333-105.173334 0l-12.544-12.672a159.573333 159.573333 0 0 0-225.450666 0 42.453333 42.453333 0 0 0 0 60.16c16.64 16.682667 43.52 16.682667 60.16 0a74.453333 74.453333 0 0 1 105.173333 0l12.672 12.672a159.573333 159.573333 0 0 0 225.408 0l10.026667-9.984c28.074667-28.16 76.970667-28.16 105.173333 0l10.965333 11.008a158.293333 158.293333 0 0 0 112.682667 46.677333 158.293333 158.293333 0 0 0 112.768-46.677333 42.666667 42.666667 0 0 0-0.085333-60.16z" fill="#fff" p-id="14578"></path><path d="M359.936 604.16l12.544 12.586667c29.013333 29.013333 76.288 29.013333 105.173333 0l10.026667-9.984c41.898667-41.941333 105.301333-54.016 160.341333-37.546667l-79.957333-152.533333-42.752-83.669334a36.778667 36.778667 0 0 0-21.461333-18.005333l-174.250667-54.613333a36.778667 36.778667 0 0 0-46.037333 24.106666 36.650667 36.650667 0 0 0 24.021333 45.994667l150.826667 54.101333 23.850666 45.568-243.413333 128.170667a158.762667 158.762667 0 0 1 121.088 45.824z" fill="#fff" p-id="14579"></path></svg>