<?xml version="1.0" standalone="no"?><!DOCTYPE svg PUBLIC "-//W3C//DTD SVG 1.1//EN" "http://www.w3.org/Graphics/SVG/1.1/DTD/svg11.dtd"><svg t="1746684696859" class="icon" viewBox="0 0 1024 1024" version="1.1" xmlns="http://www.w3.org/2000/svg" p-id="20986" xmlns:xlink="http://www.w3.org/1999/xlink" width="32" height="32"><path d="M945.220952 78.777538C886.437296 19.991883 803.531782-7.375957 711.788319 1.71599c-90.607469 8.979947-179.16095 52.573692-249.340539 122.753281a459.201309 459.201309 0 0 0-17.855895 18.919889 136.985197 136.985197 0 0 0-28.101835-40.695762c-53.681685-53.681685-141.029174-53.679685-194.708859 0-53.953684 53.955684-53.679685 141.915168 0.821995 195.522855 23.385863 23.005865 54.465681 37.017783 87.197489 39.20177a139.327184 139.327184 0 0 0 35.903789-2.245987c-9.469945 45.065736-10.095941 89.307477-2.331986 130.461236l-0.269998-0.002c-0.427997 41.143759-9.295946 155.677088-44.717738 191.10088l-71.867579 71.867579a36.325787 36.325787 0 0 0-9.865942-1.383992 35.965789 35.965789 0 0 0-25.60185 10.605938L79.242026 849.627022a15.29791 15.29791 0 0 0 21.633873 21.633873l111.805345-111.805345c1.429992-1.429992 3.099982-1.64399 3.967977-1.64399s2.529985 0.213999 3.957976 1.63399l43.957743 43.957743a5.617967 5.617967 0 0 1-0.012 7.917953l-180.440943 180.440943a5.611967 5.611967 0 0 1-7.933953 0L32.242301 947.828446a5.611967 5.611967 0 0 1 0-7.933953l18.443892-18.443892a15.29791 15.29791 0 0 0-21.633873-21.633873l-18.443892 18.443892c-14.139917 14.139917-14.139917 37.065783 0 51.2057l43.935742 43.933742c7.057959 7.057959 16.329904 10.587938 25.60185 10.587938s18.543891-3.527979 25.60185-10.587938l180.440943-180.440943c9.587944-9.587944 12.643926-23.253864 9.209946-35.461792l71.879579-71.879579c35.373793-35.373793 149.943121-44.273741 191.10488-44.717738l-0.002-0.219998a308.810191 308.810191 0 0 0 31.577815 4.225975c8.909948 0.731996 17.863895 1.097994 26.869843 1.097993 52.599692 0 106.511376-12.439927 158.033074-36.529786 7.903954-3.695978 11.231934-13.151923 7.239957-20.911877v-0.002c-3.739978-7.273957-12.569926-10.373939-19.977883-6.90596-55.581674 26.031847-113.951332 37.343781-169.659005 32.759809-60.767644-4.995971-114.043332-28.789831-154.069098-68.809597-63.645627-63.645627-85.2795-161.157056-58.517657-261.964465a137.829192 137.829192 0 0 0 36.613786-26.241847c32.36381-32.36381 45.181735-76.957549 38.523774-119.039302a425.607506 425.607506 0 0 1 29.06983-32.259811c65.191618-65.191618 147.131138-105.657381 230.722648-113.941332 82.457517-8.171952 156.599082 16.067906 208.780776 68.2476 108.565364 108.585364 88.067484 305.744209-45.691732 439.503424a422.489524 422.489524 0 0 1-52.689691 44.741738c-6.663961 4.771972-8.295951 13.997918-3.767978 20.827878 4.809972 7.253957 14.665914 9.005947 21.739873 3.933977a453.041345 453.041345 0 0 0 56.353669-47.869719c70.181589-70.181589 113.775333-158.72907 122.753281-249.332539 9.087947-91.733462-18.279893-174.638977-77.065548-233.432633z m-701.805888 196.988846c-17.571897-17.575897-27.721838-39.791767-30.499822-62.739632 23.641861 2.847983 45.485733 13.407921 62.651633 30.573821 17.189899 17.189899 27.755837 39.045771 30.593821 62.723632-23.687861-2.841983-45.611733-13.425921-62.745632-30.557821z m211.046763 362.663875a262.374463 262.374463 0 0 0 29.439828 17.325899c-3.573979 0.447997-7.201958 0.929995-10.881937 1.453991-16.745902 2.389986-32.073812 5.275969-45.98373 8.64395l27.425839-27.42384z m-37.703779-31.187817a262.488462 262.488462 0 0 0 13.255922 12.363927L277.026867 772.595473l-25.61785-25.61985 153.005103-153.005103a259.730478 259.730478 0 0 0 12.343928 13.271922z m-31.153817-37.733779l-27.45584 27.455839c3.36598-13.909918 6.253963-29.235829 8.64395-45.98373 0.533997-3.745978 1.023994-7.439956 1.477991-11.075936a264.208452 264.208452 0 0 0 17.333899 29.603827z m9.249945-293.742279c-15.985906 15.985906-36.143788 26.265846-58.00966 29.885825-3.081982-31.603815-16.805902-60.849643-39.641767-83.68751-22.815866-22.813866-52.019695-36.533786-83.609511-39.623767 3.535979-21.255875 13.455921-41.651756 29.821826-58.01566 16.369904-16.367904 36.765785-26.289846 58.02766-29.823826 3.069982 31.567815 16.777902 60.785644 39.607768 83.61351 22.837866 22.839866 52.049695 36.593786 83.61951 39.663768-3.539979 21.249875-13.457921 41.631756-29.815826 57.98766z m-32.167811-119.281301c-17.181899-17.181899-27.735837-39.013771-30.561821-62.655633 22.945866 2.779984 45.159735 12.925924 62.731632 30.499822 17.571897 17.567897 27.717838 39.781767 30.497822 62.727632-23.657861-2.827983-45.477734-13.379922-62.667633-30.571821z" fill="#1296db" p-id="20987"></path><path d="M892.715259 131.289231c-42.761749-42.761749-104.413388-62.537634-173.606983-55.683674-73.573569 7.287957-146.077144 43.285746-204.154803 101.365406-58.07966 58.07766-94.077449 130.581235-101.365406 204.154804-6.85396 69.191595 12.921924 130.847233 55.683673 173.608983 37.209782 37.209782 88.72148 57.013666 147.061139 57.013666 8.703949 0 17.563897-0.439997 26.547844-1.331993 73.573569-7.287957 146.077144-43.287746 204.154804-101.365406 58.07966-58.07966 94.077449-130.581235 101.365406-204.154804 6.84996-69.189595-12.923924-130.847233-55.685674-173.606982z m-11.367933 33.001806c13.775919 16.851901 23.93386 36.585786 30.221823 58.441658l-44.33374-44.33174 14.111917-14.109918z m-343.331988 178.720953l60.671644-60.671644 60.669645 60.669644-60.671645 60.671645-60.669644-60.669645z m39.035771 82.305518l-60.675645 60.675644-60.669644-60.669644 60.675644-60.675645 60.669645 60.669645z m43.275746-164.617036l60.657645-60.657644 60.669644 60.669644-60.657644 60.657645-60.669645-60.669645z m60.665645 103.945391l60.663644 60.663645-60.671644 60.671644-60.663645-60.663644 60.671645-60.671645z m21.639873-21.639873l60.657645-60.657644 60.663644 60.663644-60.657644 60.657645-60.663645-60.663645z m82.291518-82.293518l60.675644-60.675644 60.663645 60.663644-60.675645 60.675645-60.663644-60.663645z m74.773562-118.043308l-14.099918 14.099917-44.27974-44.28174c21.831872 6.289963 41.545757 16.421904 58.379658 30.181823z m-96.401435-24.935854l60.669644 60.669645-60.675644 60.675644-60.671645-60.669644 60.677645-60.675645z m-41.173759-11.679931c3.48598-0.343998 6.941959-0.599996 10.375939-0.793996l-51.515698 51.515698-32.613809-32.613809c24.069859-9.499944 48.865714-15.641908 73.753568-18.107893z m-103.421394 31.707814l40.647762 40.647762-60.657645 60.657644-51.045701-51.045701c22.015871-20.215882 45.959731-37.101783 71.055584-50.259705z m-92.697457 71.901579l51.047701 51.0437-60.671645 60.671645-40.645761-40.643762c13.157923-25.099853 30.049824-49.049713 50.269705-71.071583z m-81.97152 174.478977c2.465986-24.883854 8.60795-49.675709 18.103894-73.739568l32.609809 32.609809-51.513698 51.513698c0.193999-3.43598 0.453997-6.89596 0.799995-10.383939z m36.603786 137.589194c-13.769919-16.845901-23.92186-36.571786-30.213823-58.419658l44.31774 44.317741-14.103917 14.101917z m21.635873 21.635873l14.103917-14.103917 44.317741 44.31774c-21.849872-6.289963-41.573756-16.443904-58.421658-30.213823z m96.401435 24.925854l-60.663644-60.663644 60.675644-60.675645 60.663645 60.663645-60.675645 60.675644z m41.187759 11.677932c-3.48998 0.345998-6.955959 0.607996-10.395939 0.799995l51.519698-51.519698 32.615809 32.615809c-24.063859 9.497944-48.853714 15.637908-73.739568 18.103894z m103.409394-31.703815l-40.649762-40.649761 60.669645-60.671645L814.343718 497.997082c-22.021871 20.219882-45.971731 37.111783-71.073583 50.269705z m92.711457-71.907578l-51.051701-51.051701 60.657644-60.657645 40.653762 40.653762c-13.157923 25.093853-30.045824 49.039713-50.259705 71.055584z m81.969519-174.478978c-2.465986 24.889854-8.60995 49.685709-18.107893 73.753568l-32.619809-32.619809 51.527698-51.527698c-0.193999 3.43998-0.455997 6.90396-0.799996 10.393939z" fill="#1296db" p-id="20988"></path></svg>